<?xml version="1.0" encoding="UTF-8"?>
<svg width="413px" height="413px" viewBox="0 0 413 413" version="1.1" xmlns="http://www.w3.org/2000/svg" xmlns:xlink="http://www.w3.org/1999/xlink">
    <!-- Generator: Sketch 40.2 (33826) - http://www.bohemiancoding.com/sketch -->
    <title>Shape</title>
    <desc>Created with Sketch.</desc>
    <defs></defs>
    <g id="Page-1" stroke="none" stroke-width="1" fill="none" fill-rule="evenodd">
        <g id="facebook-3" transform="translate(-41.000000, 0.000000)" fill="#FFFFFF">
            <path d="M390.14,0.5 L109.98,0.5 C73.572,0.5 41.5,26.952 41.5,63.36 L41.5,343.52 C41.5,379.928 73.572,412.5 109.98,412.5 L283.446,412.5 C283.121,358.5 283.523,298.366 283.261,246.113 C272.197,246.001 261.123,245.429 250.059,245.259 C250.1,226.792 250.076,207.942 250.083,189.478 C261.14,189.341 272.204,189.315 283.261,189.21 C283.599,171.253 282.923,153.185 283.615,135.244 C284.718,121.039 290.134,106.681 300.755,96.867 C313.614,84.628 331.897,80.47 349.142,79.955 C367.375,79.792 385.61,79.879 403.852,79.887 C403.924,99.127 403.924,118.369 403.844,137.609 C392.055,137.589 380.259,137.632 368.47,137.584 C361.002,137.117 353.325,142.782 351.966,150.193 C351.789,163.068 351.902,175.95 351.909,188.821 C369.194,188.894 386.486,188.801 403.771,188.865 C402.507,207.494 400.19,226.033 397.486,244.502 C382.214,244.639 366.932,246.016 351.668,246.104 C351.539,298.34 351.708,358.499 351.575,412.499 L390.139,412.499 C426.547,412.499 453.499,379.927 453.499,343.519 L453.499,63.36 C453.5,26.952 426.548,0.5 390.14,0.5 L390.14,0.5 Z" id="Shape"></path>
        </g>
    </g>
</svg>