<?xml version="1.0" encoding="UTF-8"?>
<svg width="630px" height="630px" viewBox="0 0 630 630" version="1.1" xmlns="http://www.w3.org/2000/svg" xmlns:xlink="http://www.w3.org/1999/xlink">
    <!-- Generator: Sketch 40.2 (33826) - http://www.bohemiancoding.com/sketch -->
    <title>New color: Vinrød Copy</title>
    <desc>Created with Sketch.</desc>
    <defs></defs>
    <g id="Page-1" stroke="none" stroke-width="1" fill="none" fill-rule="evenodd">
        <g id="New-color:-Vinrød-Copy">
            <g id="javascript-736400">
                <rect id="Rectangle-path" fill="#F7DF1E" x="0" y="0" width="630" height="630"></rect>
                <path d="M423.2,492.19 C435.89,512.91 452.4,528.14 481.6,528.14 C506.13,528.14 521.8,515.88 521.8,498.94 C521.8,478.64 505.7,471.45 478.7,459.64 L463.9,453.29 C421.18,435.09 392.8,412.29 392.8,364.09 C392.8,319.69 426.63,285.89 479.5,285.89 C517.14,285.89 544.2,298.99 563.7,333.29 L517.6,362.89 C507.45,344.69 496.5,337.52 479.5,337.52 C462.16,337.52 451.17,348.52 451.17,362.89 C451.17,380.65 462.17,387.84 487.57,398.84 L502.37,405.18 C552.67,426.75 581.07,448.74 581.07,498.18 C581.07,551.48 539.2,580.68 482.97,580.68 C427.99,580.68 392.47,554.48 375.09,520.14 L423.2,492.19 Z M214.07,497.32 C223.37,513.82 231.83,527.77 252.17,527.77 C271.62,527.77 283.89,520.16 283.89,490.57 L283.89,289.27 L343.09,289.27 L343.09,491.37 C343.09,552.67 307.15,580.57 254.69,580.57 C207.29,580.57 179.84,556.04 165.88,526.495 L214.07,497.32 Z" id="Shape" fill="#2E2E2C"></path>
                <path d="M321.613876,211.033786 L314.627033,203.411777 L307.767225,210.271585 C298.747847,219.54503 286.806699,227.16704 275.754785,230.596944 C263.178469,234.534983 243.869378,234.534983 230.657895,230.342877 C217.954545,226.531873 201.440191,217.639528 190.769378,209.128284 C161.932775,186.008188 133.858373,173.431873 114.295215,174.702207 C108.832775,175.083308 103.243301,176.353643 100.194498,178.005078 C94.3509569,180.926849 86.3478469,188.548858 85.2045455,192.23283 C83.9342105,196.297901 85.5856459,202.903643 88.5074163,205.571346 C92.0643541,208.747184 101.337799,208.493117 109.340909,204.936179 C116.708852,201.633308 119.122488,201.633308 121.790191,204.555078 C125.601196,208.747184 124.457895,212.431155 117.216986,219.54503 C97.7808612,238.218954 74.0255981,234.026849 54.8435407,208.493117 C49.1270335,200.871107 49,200.61704 49,190.835461 C49,178.894313 52.3028708,167.334265 58.1464115,158.44192 C73.1363636,135.829959 103.497368,119.061538 139.066746,113.726131 C159.519139,110.677327 206.140431,110.677327 222.654785,113.726131 C247.553349,118.42637 268.640909,126.302447 284.647129,136.846227 C292.269139,141.927566 307.132057,156.409385 310.434928,161.871825 C311.57823,163.777327 313.229665,165.428763 314.1189,165.428763 C314.8811,165.428763 318.183971,161.998858 321.359809,157.933786 C346.13134,125.794313 394.785167,109.025892 456.142344,111.185461 C506.701675,113.090963 535.538278,122.745509 559.420574,145.611538 C572.886124,158.568954 580,174.06704 580,190.962495 C580,197.949337 579.364833,200.108906 576.316029,204.936179 C571.234689,212.939289 558.277273,224.753404 551.163397,228.056274 C537.951914,234.026849 522.453828,230.596944 510.258612,219.036896 C505.939474,214.971825 505.050239,213.193356 505.050239,209.382351 C505.050239,202.268475 508.988278,200.998141 519.023923,204.809145 C528.551435,208.366083 537.189713,208.874217 539.98445,205.952447 C543.160287,202.903643 544.303589,195.662734 542.52512,191.343595 C539.98445,185.245987 531.346172,178.513212 523.216029,176.099576 C510.512679,172.415605 493.236124,175.718475 473.8,185.500054 C465.415789,189.69216 443.693062,204.173978 433.276316,212.558188 C425.146172,219.036896 403.677512,229.580676 393.895933,231.994313 C383.479187,234.407949 371.156938,235.297184 362.772727,234.026849 C347.401675,231.613212 333.555024,223.864169 321.613876,211.033786 Z" id="path2878" fill="#2E2E2C" transform="translate(314.500000, 172.802300) scale(1, -1) translate(-314.500000, -172.802300) "></path>
            </g>
        </g>
    </g>
</svg>