<?xml version="1.0" encoding="UTF-8" standalone="no"?>
<svg width="219px" height="166px" viewBox="0 0 219 166" version="1.1" xmlns="http://www.w3.org/2000/svg" xmlns:xlink="http://www.w3.org/1999/xlink">
    <!-- Generator: Sketch 3.7.2 (28276) - http://www.bohemiancoding.com/sketch -->
    <title>Meetup Logo</title>
    <desc>Created with Sketch.</desc>
    <defs></defs>
    <g id="Page-1" stroke="none" stroke-width="1" fill="none" fill-rule="evenodd">
        <g id="Desktop-HD" transform="translate(-285.000000, -1454.000000)">
            <g id="Section:-Meetup" transform="translate(0.000000, 1396.000000)">
                <g id="Meetup-Logo" transform="translate(396.471957, 140.499115) rotate(-10.000000) translate(-396.471957, -140.499115) translate(293.351750, 71.863913)">
                    <g id="Group" fill="#FFFFFF">
                        <path d="M185.862714,5.7196002 L18.166343,5.7196002 C10.3463941,5.7196002 5.72890036,10.358196 5.72890036,16.2551038 L5.72890036,121.009581 C5.72890036,126.906489 10.3463941,131.550805 18.166343,131.550805 L185.862714,131.550805 C191.729108,131.550805 196.346602,126.906489 196.346602,121.015301 L196.346602,16.2551038 C196.340873,10.358196 191.729108,5.7196002 185.862714,5.7196002 L185.862714,5.7196002 Z" id="Shape"></path>
                        <path d="M185.862714,5.7196002 C191.729108,5.7196002 196.346602,10.358196 196.346602,16.2551038 L196.346602,121.009581 C196.346602,126.90077 191.729108,131.545085 185.862714,131.545085 L18.166343,131.545085 C10.3463941,131.550805 5.72890036,126.906489 5.72890036,121.015301 L5.72890036,16.2551038 C5.72890036,10.358196 10.3463941,5.7196002 18.166343,5.7196002 L185.862714,5.7196002 L185.862714,5.7196002 Z M185.862714,0 L18.166343,0 C7.63662418,0 0,6.83492224 0,16.2551038 L0,121.009581 C0,130.435483 7.63662418,137.270405 18.166343,137.270405 L185.862714,137.270405 C194.954479,137.270405 202.075502,130.126624 202.075502,121.015301 L202.075502,16.2551038 C202.069774,7.14378065 194.954479,0 185.862714,0 L185.862714,0 L185.862714,0 Z" id="Shape"></path>
                    </g>
                    <path d="M153.465783,108.935505 C153.21944,108.701002 153.104862,108.701002 152.726755,108.815394 C152.549159,108.992701 152.302816,108.992701 152.234069,108.884029 C152.17678,108.815394 151.999184,108.643806 151.810131,108.58089 C151.632535,108.535133 151.50077,108.289191 151.50077,107.997491 C151.50077,107.705791 151.621077,108.535133 151.437752,108.066126 C151.248698,107.419811 151.248698,107.173869 151.369005,107.173869 C151.489312,107.173869 151.489312,107.128112 151.311716,107.008 C150.996627,106.830692 150.819031,106.253013 150.629977,104.966103 C150.629977,104.788795 150.280514,103.416091 150.045629,101.940434 C149.879491,100.533413 149.644606,98.4800762 149.581588,97.467707 C149.346703,93.2981184 149.346703,93.1837264 148.705067,92.7719152 C148.349875,92.5946076 147.874376,92.1256004 147.582202,91.8224616 C147.22701,91.3534544 147.17545,91.1761468 147.22701,90.4726359 C147.295757,90.0036287 147.347317,89.5975371 147.347317,89.4774255 C147.347317,89.2429219 148.344146,88.8311107 148.808187,88.9397831 C149.340975,89.0598947 149.340975,89.0598947 149.57586,87.6414338 C149.633149,87.3497342 149.747727,86.2344122 149.868033,85.2392017 C149.93678,84.1753561 150.223225,82.5223917 150.395092,81.5329008 C150.629977,80.5319708 150.807573,79.4681251 150.864862,79.2336215 C150.92788,78.3528031 151.506499,76.1736354 151.695553,76.1164394 C151.747113,76.064963 151.810131,75.8247398 151.810131,75.5902362 C151.810131,74.5950258 153.746499,70.5341096 155.092791,68.7610336 C155.625578,68.1204384 156.387522,67.2910963 156.800003,66.9422007 C157.206755,66.6505011 157.739543,66.1185783 158.031716,65.8268787 C158.266601,65.5351791 158.856678,65.0604522 159.326448,64.8259486 C159.801947,64.5857254 160.271716,64.3569414 160.271716,64.2883062 C160.329005,64.2368298 160.867522,64.0652418 161.50343,63.9394106 C162.374223,63.7678226 162.746601,63.7678226 163.313763,63.9394106 C163.668954,64.0652418 164.207471,64.1224378 164.373609,64.1224378 C164.608494,64.1224378 164.78609,64.2425494 164.843379,64.2883062 C164.843379,64.4141374 165.490745,64.705837 166.252688,64.9460602 C166.957343,65.1805639 167.833865,65.5294595 168.131768,65.6495711 C168.429671,65.8268787 168.842151,65.9469903 169.128596,66.0041863 C170.423328,66.2958859 171.649313,67.9374111 172.353967,70.5341096 C172.823737,72.2957465 172.823737,76.293747 172.353967,78.5243911 C171.592024,81.9389924 170.709773,83.4089297 167.306806,86.880727 C163.491358,90.8215315 159.796218,93.3495948 157.44164,93.647014 C156.914581,93.7099296 156.45054,93.818602 156.381793,93.8872372 C156.209926,94.1789369 156.261486,100.659244 156.5021,102.420881 C156.736985,104.708721 157.745271,107.591399 157.865578,107.717231 C158.11765,107.894538 158.547317,108.546573 158.478571,108.712441 C158.300975,108.946945 156.45054,108.889749 156.152637,108.592329 C155.963583,108.426461 155.906294,108.472218 155.659952,108.712441 C155.476627,109.004141 155.413609,109.004141 155.344862,108.769637 C155.224555,108.546573 155.098519,108.546573 154.852177,108.649525 C154.674581,108.769637 154.428238,108.769637 154.36522,108.706721 C154.302202,108.649525 154.124606,108.769637 154.004299,108.941225 C153.826704,109.232925 153.763686,109.232925 153.465783,108.935505 L153.465783,108.935505 Z M157.630693,87.1724266 C157.630693,87.109511 158.037445,86.8750074 158.444197,86.5833078 C159.452484,85.879797 162.855451,82.3508036 163.32522,81.458546 C164.677241,79.0505943 165.2043,77.4033495 165.439185,74.9267626 C165.616781,72.9935377 165.026704,69.1671252 164.608494,69.1671252 C164.373609,69.1671252 162.368494,71.2833773 161.669568,72.3357837 C159.962356,74.9267626 158.679082,78.2212523 157.922867,81.8760768 C157.682254,82.9342029 157.447369,83.8722173 157.384351,83.9294133 C157.321333,83.9866093 157.212484,84.6386437 157.097906,85.4050702 C156.977599,86.108581 156.794274,86.9264838 156.742714,87.223903 C156.628136,87.7501062 156.679696,87.7501062 157.097906,87.5156026 C157.332791,87.4069302 157.567676,87.2296226 157.630693,87.1724266 L157.630693,87.1724266 Z M112.859337,97.7022106 C112.744759,97.524903 112.624452,97.353315 112.567163,95.7003505 C112.504145,94.2361329 112.446856,92.98926 112.389567,92.9377836 C112.326549,92.874868 112.26926,91.3477348 112.211971,89.5860979 C112.16614,87.8130218 111.977086,86.2858886 111.919797,86.2858886 C111.799491,86.2286926 111.753659,85.8168814 111.753659,85.2906781 C111.753659,84.7530357 111.69637,83.3460141 111.633352,83.2259025 C111.513046,83.1115105 110.401639,83.0028381 108.579849,82.9342029 C105.829976,82.8140913 105.703941,82.7683345 105.354478,82.3508036 C104.764401,81.6987692 104.655552,81.1668464 104.890437,80.3375044 C105.131051,79.5081623 105.892994,78.8046515 106.59192,78.8046515 C106.826805,78.8046515 107.932483,78.8675671 109.118365,78.9247631 L111.220872,79.0448747 L111.220872,78.4500363 C111.220872,78.1011407 111.106294,78.1011407 111.054733,77.2203223 C110.934427,76.3909802 110.819849,75.1669858 110.751102,74.5149514 C110.693813,73.8686366 110.516217,72.5702873 110.401639,71.5750769 C110.235501,70.5627076 110.052176,68.8010708 110.000616,67.6857487 C109.880309,66.5704267 109.696984,64.562847 109.588135,63.2130214 C109.35325,60.2159509 109.467828,54.2103707 109.82302,53.1579642 C110.224043,51.9225306 110.458928,51.7509426 111.925526,51.8081386 C112.985373,51.8081386 113.449414,51.9225306 114.50926,52.3972574 C117.677342,53.9358299 117.854938,54.2790059 117.442457,57.2131608 C117.150283,59.1578248 117.087266,63.3388526 117.32215,66.2158115 C117.385168,67.1652651 117.505475,68.9211824 117.557035,70.09942 C117.79192,74.0974206 117.854938,74.6236238 117.963787,75.4529658 C118.021076,75.864777 118.198672,76.5682878 118.198672,76.8142307 L118.026805,76.9286227 C118.026805,76.6254838 117.917956,76.694119 117.854938,77.0487343 C117.734631,78.1526171 117.79192,78.3356443 118.089823,78.2212523 L118.737189,78.9247631 L118.851767,78.2212523 C118.972074,77.6321335 118.737189,78.8675671 118.737189,78.8046515 C118.972074,78.1068603 119.092381,78.7474555 119.321537,78.6330635 C119.917342,78.3928403 120.387112,78.5129519 120.730846,78.9876787 C120.851153,79.1649863 121.02302,79.2908175 121.080309,79.2221823 C121.149056,79.1649863 121.435501,79.3422939 121.676115,79.5767975 C121.853711,79.8170208 122.145885,80.0458048 122.317752,80.0458048 C122.438059,80.0458048 122.552637,80.1087204 122.552637,80.1659164 C122.552637,80.40042 124.425987,81.572938 125.021793,81.9275532 C125.256677,82.0991412 125.376984,82.2821684 125.256677,82.2821684 C125.079082,82.2821684 125.136371,82.3508036 125.313966,82.5738681 C125.726447,82.9284833 125.434273,83.1687065 124.552023,83.1687065 C124.25412,83.1687065 123.961946,83.2201829 123.904657,83.3402945 C123.847368,83.4604061 123.612483,83.5176021 123.377598,83.5176021 C123.200002,83.5176021 122.907828,83.6891901 122.74169,83.9294133 C122.495348,84.1067209 122.329209,84.2211129 122.27192,84.1067209 C122.203174,83.9866093 122.088596,83.9294133 122.025578,83.9294133 C121.968289,83.9866093 120.97146,84.1067209 119.745475,84.1639169 C118.565322,84.2211129 117.27059,83.6377137 117.156012,83.7521057 C116.869567,83.9866093 116.869567,84.4556165 117.098723,84.4556165 C117.156012,84.4556165 117.21903,84.7473161 117.21903,85.1705665 C117.21903,85.5823778 117.21903,85.9312734 117.339337,85.9999086 C117.402355,86.0571046 117.459644,86.3545238 117.459644,86.6462234 C117.459644,87.1781462 117.402355,87.1781462 117.293506,86.880727 C117.173199,86.6462234 117.173199,87.4126498 117.236217,88.9340635 C117.293506,90.2896087 117.350795,92.6289252 117.402355,94.1732173 C117.402355,95.7060701 117.522662,96.2379929 117.574222,96.4667769 C117.631511,96.7641961 117.574222,96.8728685 117.339337,96.8213921 C117.161741,96.8213921 116.875296,96.8213921 116.74926,96.8785881 C116.164913,97.181727 115.574836,97.3018386 114.704043,97.2332034 C113.942099,97.2332034 113.758774,97.2903994 113.758774,97.524903 C113.758774,97.7022106 113.649925,97.7594066 113.472329,97.7022106 C113.352023,97.6335754 113.180156,97.6335754 113.180156,97.7594066 C113.094222,97.868079 112.973915,97.868079 112.859337,97.7022106 L112.859337,97.7022106 Z M59.8154487,95.5802389 C59.6435817,95.4658469 59.2941187,94.5850285 59.0535049,93.5783788 C58.589464,91.9254144 58.1139653,90.5813083 57.8275202,90.4040007 C57.7072133,90.2838891 56.4182108,86.4631962 56.4182108,86.1714966 C56.4182108,86.051385 56.1203079,84.9303433 55.7078271,83.6891901 C55.3010752,82.459476 54.8885944,81.1096504 54.8313054,80.6406432 C54.6537094,79.8684972 54.4818424,78.9876787 53.5423028,75.3442934 C52.837648,72.5874461 52.780359,73.4053489 52.3105892,84.1639169 C52.0757043,89.7004899 52.0184153,90.2266931 51.2564715,91.9196948 C51.0158577,92.5660096 50.9585687,92.5660096 50.139336,92.6232056 C49.0794894,92.6232056 48.4378525,92.6975604 46.5645021,92.9778208 C44.673965,93.218044 44.2614842,93.218044 43.7401543,92.8634288 C43.2703844,92.56029 41.2709982,89.6890507 37.6961644,83.8035821 C37.2894124,83.0428753 37.2894124,83.2773789 37.8164713,87.0980718 C38.4581081,91.5078836 38.4581081,91.6222756 37.2894124,92.3372256 C36.3498728,92.9263444 32.946906,93.8014432 32.0646553,93.6870512 C30.8272128,93.5097436 30.300154,92.7490368 30.128287,90.9816803 C30.0079801,89.8606387 29.7730952,84.7987925 29.5439392,84.0952817 C29.4236323,83.7406665 29.5439392,73.2623589 29.5439392,68.5665672 L29.5439392,68.1776344 L29.95642,67.7601035 C30.3058829,67.6399919 31.0162666,67.4684039 31.4803075,67.2853767 C32.0130952,67.1137887 32.946906,66.9993967 34.4707935,66.9993967 C36.6420467,66.9993967 36.6993357,66.9993967 37.1118165,67.4684039 C37.6388754,68.0518032 39.3976478,70.1165788 41.740768,74.7036982 C44.6224049,80.4118592 44.559387,80.2345516 44.6224049,79.82846 C44.6224049,79.6511524 44.6224049,79.3537331 44.673965,79.1192295 C44.7942719,77.4662651 45.0291568,75.6989086 45.2583128,74.349083 C46.2093103,70.0651024 46.7249113,67.8287387 47.0285431,67.5885155 C47.14885,67.4169275 47.263428,67.2339003 47.263428,67.1137887 C47.263428,66.8792851 48.6727375,62.9956766 49.4289523,61.1711241 C49.96174,59.9356905 50.139336,59.8784945 52.7746301,59.9986061 C56.9395407,60.2331097 56.8249627,60.1701941 57.8217913,61.4685433 C58.2858323,62.0462229 59.2883898,65.3464323 59.2883898,66.3473623 C59.2883898,66.5189503 59.5175458,67.4112079 59.8097198,68.2863068 C60.3367786,69.870636 60.9268553,72.3357837 61.3908963,74.6979786 C61.5112032,75.350013 61.8033771,76.6426426 61.980973,77.5806571 C62.2215868,78.5301107 62.4564717,79.82846 62.5710497,80.4633356 C62.7429167,81.7616848 62.8059347,82.1163 63.6251674,84.7072789 C64.3298221,87.0465954 64.5647071,88.167637 64.3928401,88.6423639 C64.3298221,88.8768675 64.3928401,88.9340635 64.5074181,88.8768675 C64.627725,88.8196715 64.6792851,88.8768675 64.6792851,88.9969791 C64.7480319,89.8206015 64.8626099,90.1065815 65.0344769,90.1694971 C65.1547838,90.2381323 65.2120728,90.2896087 65.0974948,90.4040007 C65.0344769,90.5241123 65.1547838,90.8844471 65.2693618,91.2390624 C65.5615357,92.0054888 66.3292084,94.2361329 66.3292084,94.4134405 C66.3292084,94.5907481 65.5672646,94.1732173 65.3266508,93.8243216 C65.1605127,93.647014 65.1605127,93.7671256 65.1605127,94.2361329 C65.1605127,94.9396437 65.1032237,94.9968397 64.7537608,94.7051401 C64.6334539,94.5278325 64.513147,94.5278325 64.513147,94.6422245 C64.513147,94.7566165 64.335551,94.9396437 64.049106,95.0540357 C63.7569321,95.1741473 63.6366252,95.1741473 63.6366252,95.0540357 C63.6366252,94.9339241 63.5163183,94.9339241 63.3960114,94.9911201 C63.2814334,95.1112317 62.9319705,95.1684277 62.6340676,95.1684277 C62.4049116,95.1684277 62.1070088,95.2885393 62.0439909,95.3457353 C61.9867019,95.4658469 61.637239,95.5230429 61.2820472,95.5230429 C60.9325842,95.5802389 60.5258323,95.6431545 60.4055254,95.7003505 C60.2222006,95.7575465 59.9930446,95.7003505 59.8154487,95.5802389 L59.8154487,95.5802389 Z M75.5985692,96.5239729 C73.135142,96.1636381 71.0269067,95.3457353 70.723275,94.6365049 C70.6659859,94.4649169 70.4826611,94.4020013 70.3107941,94.4649169 C70.201945,94.5221129 70.0759092,94.4649169 70.1389271,94.4020013 C70.2535051,94.2304133 69.4342724,93.5783788 68.9645025,93.5783788 C68.6723286,93.5097436 67.3203081,91.7538264 66.7875204,90.8730079 C65.9167275,89.5117431 65.7964206,88.5737287 65.7334027,83.4489669 C65.7334027,80.3317848 65.7906917,78.5186715 65.9109986,78.2841679 C65.9625588,78.0382251 66.1401547,77.0430147 66.2031726,76.0420846 C66.2604616,74.921043 66.4380575,73.9143934 66.5583644,73.6226937 C66.7302314,73.2737981 66.8448094,72.9191829 66.8448094,72.8047909 C66.8448094,72.3929797 67.790078,70.156616 68.1968299,69.6246932 C68.3801547,69.327274 68.7296176,68.9097432 68.9014846,68.7381552 C69.1420985,68.5093712 69.5488504,68.0289248 69.8410243,67.6228331 C70.3050652,66.9822379 71.5425077,65.9813079 73.0663952,64.9746582 C73.478876,64.6829586 73.8283389,64.391259 73.8283389,64.2654278 C73.8283389,64.2139514 74.1205129,63.9794478 74.4126868,63.8021402 C74.9454745,63.504721 75.5871114,63.561917 77.8729426,63.8593362 C78.4000014,63.9165322 79.1046562,63.9794478 79.459848,63.9794478 C79.8665999,63.9794478 80.0499247,64.0423634 79.9296178,64.1510358 C79.574426,64.3283434 79.8093109,64.4427354 81.0410245,64.6257626 C81.8086971,64.7401546 82.2727381,64.9231818 82.507623,65.2148815 C83.3268557,66.0327843 83.6820476,68.2176716 84.0887995,74.0402246 C84.3236844,77.5005827 84.3236844,78.7989319 84.0887995,79.5653583 C83.9742215,79.9199736 83.8481857,80.6749608 83.7966256,81.2697992 C83.6247586,82.8541285 83.5560118,82.9742401 82.2670092,83.0886321 C80.7373928,83.2087437 76.4063441,82.9170441 74.7506919,82.6196249 C73.9944771,82.4480368 73.3413824,82.3851212 73.2898223,82.3851212 C73.2898223,82.4480368 73.1695154,83.2087437 73.1179553,84.1524777 C72.8200525,87.681471 73.6392852,90.6899807 75.5126357,92.331506 C76.5724822,93.2695204 77.162559,93.504024 78.0390807,93.389632 C79.5056792,93.160848 80.6801038,92.7490368 81.5050654,92.27431 L82.3242982,91.7995832 L83.5560118,92.102722 C84.2033775,92.2685904 84.9080322,92.3944216 85.0226103,92.3944216 C85.1944773,92.3944216 85.3147842,92.4516176 85.3147842,92.56029 C85.3147842,92.6804016 85.498109,92.7433172 85.669976,92.7433172 C86.1970348,92.7433172 86.6095157,92.9149052 86.6095157,93.2123244 C86.6095157,93.332436 86.7298226,93.4525476 86.8386717,93.4525476 C87.0219965,93.4525476 87.3141704,93.6870512 87.5490553,93.9158352 L88.024554,94.3276465 L86.4319197,94.9224849 C85.612687,95.2141845 84.7934542,95.5630801 84.7361652,95.6259957 C84.6158583,95.7461073 83.8481857,95.8604993 83.0862419,95.9806109 C82.3242982,96.0435265 81.2701805,96.2208341 80.7373928,96.3352261 C79.5858838,96.6383649 76.9448607,96.7012805 75.5985692,96.5239729 L75.5985692,96.5239729 Z M78.886958,74.635063 C78.829669,73.0049769 78.7093621,71.4034889 78.652073,71.1689853 C78.5317661,70.757174 77.3573416,70.9916777 76.9448607,71.6951885 C76.125628,72.9306221 75.4209732,74.8123706 74.9569323,76.8199503 C74.5444515,78.4557559 74.4814336,78.3413639 77.0021497,78.8103711 C77.6552444,78.9362023 78.944247,77.9981879 78.886958,74.635063 L78.886958,74.635063 Z M99.0125849,97.8166026 C99.178723,97.696491 98.9552959,97.639295 98.1246054,97.639295 C97.4886974,97.639295 96.1996949,97.467707 95.3174442,97.2903994 C94.4294646,97.0501762 93.5013828,96.2894693 93.260769,96.2322733 C92.5561142,96.1579185 92.4988252,96.1579185 92.6706922,95.9348541 C92.739439,95.8147425 92.739439,95.7575465 92.6134032,95.8662189 C92.4930963,95.9348541 91.8514595,95.7003505 91.1525336,95.3400157 C89.9781091,94.6937009 88.9182625,91.8110224 88.2136078,90.4040007 C88.0990297,90.1580579 87.6865489,89.5746587 87.337086,89.1628475 C86.3918174,87.9788902 86.2772394,87.4584066 86.2772394,84.6329241 C86.2772394,83.2773789 86.1569325,82.1048608 86.0996435,82.0476648 C85.8647586,81.9275532 86.0423545,79.7483856 86.3345284,79.5138819 C86.5751422,79.3422939 86.9303341,77.9810291 87.4459351,75.2813778 C87.6292599,74.463475 88.0417407,73.1022101 88.3281858,72.2271113 C88.6833776,71.3977693 88.9755515,70.6370624 88.9755515,70.5226704 C88.9755515,70.2252512 90.6827638,65.9355511 90.9806666,65.7010475 C91.0952446,65.5809359 91.2728405,65.4036283 91.5019966,65.049013 C92.2123802,64.1109986 93.2092089,63.8707754 93.3810759,63.8707754 C93.5644007,63.8707754 94.7903854,63.4074878 95.2028662,63.4074878 C95.8502319,63.3445722 97.9069072,63.1672646 98.7834289,63.762103 C99.0240427,63.933691 99.3735057,64.0595222 99.6026617,64.0595222 C99.8432755,64.0595222 100.490641,64.2825866 101.011971,64.5800058 C101.550488,64.877425 102.123378,65.1176482 102.306703,65.1176482 C102.833761,65.1176482 103.716012,65.7067671 103.950897,66.2958859 C104.243071,66.9364811 104.30036,66.7648931 104.117035,69.1156488 C104.059746,70.0651024 103.950897,70.5341096 103.83059,70.413998 C103.773301,70.2309708 103.716012,70.8200896 103.716012,71.7638237 C103.716012,72.7704733 103.658723,73.2966765 103.538416,73.2394805 C103.418109,73.1708453 103.30926,73.2966765 103.30926,73.5311801 C103.30926,73.7656837 103.240513,74.177495 103.240513,74.406279 C103.240513,74.6407826 103.183224,74.9953978 103.125935,75.121229 C102.833761,75.7675438 102.541588,84.2954677 102.770744,84.2954677 C102.89105,84.2954677 102.954068,84.4155793 102.954068,84.5299713 C102.954068,84.7072789 102.833761,84.8216709 102.661894,84.8216709 C102.421281,84.8216709 102.071818,84.9417825 101.773915,85.0618941 C101.48747,85.1820057 101.195296,85.2334821 101.138007,85.1820057 C101.0177,85.1820057 100.662508,85.3021173 100.255756,85.4851446 C99.4880837,85.7768442 97.8496182,84.7701945 96.8527895,84.5356909 C96.5033266,84.4212989 95.9132498,84.3011873 95.500769,84.2439913 C95.1513061,84.1867953 94.4466513,84.0666837 93.9253214,84.0094877 C93.4555516,83.8893761 93.0430708,83.8893761 92.9800529,83.9522917 C92.9800529,84.0094877 92.8654748,84.5986065 92.8081858,85.2392017 C92.6305899,87.2467814 93.6904365,91.3076976 95.6210759,93.303838 C97.0934033,94.6479441 98.6745798,94.9453633 101.367163,94.1217409 C103.188953,93.5955376 103.721741,93.361034 103.721741,93.0064188 C103.721741,92.5946076 104.546703,91.8339008 104.947726,91.9482928 C106.483071,92.2399924 106.826805,93.189446 106.717956,93.8300412 C106.660667,94.0073488 106.775245,94.2418525 106.952841,94.3562445 C107.176268,94.5335521 107.176268,94.5335521 106.775245,94.8309713 C105.898723,95.5344821 105.944554,96.0034893 104.781588,96.3581045 C104.134222,96.6040473 103.549874,96.8385509 103.549874,96.8843077 C103.429567,97.0730546 100.610948,98.011069 99.4938126,98.011069 C98.9552959,97.9939102 98.8292601,97.9367142 99.0125849,97.8166026 L99.0125849,97.8166026 Z M97.4256795,78.5873067 C97.7178534,77.7579647 97.9584673,74.0516638 97.8324315,71.5293201 L97.1335056,70.7628936 L96.4288509,70.5798664 C95.6038892,72.2900269 93.6732498,78.1697759 93.6732498,78.9362023 C93.6732498,79.4624055 94.4294646,79.4624055 95.787214,79.5825171 C96.1996949,79.5825171 96.7840427,78.9362023 96.9559097,78.9362023 C97.1392345,78.9933983 97.3626616,78.8103711 97.4256795,78.5873067 L97.4256795,78.5873067 Z M132.629772,96.1579185 C131.105885,95.7003505 130.34967,94.7508969 129.341383,92.1713572 C128.166959,89.1685671 127.17013,82.1048608 127.112841,76.3395038 C127.112841,73.3996293 128.166959,72.9306221 131.398059,74.3948398 C132.217291,74.806651 132.984964,75.1669858 133.036524,75.1669858 C133.156831,75.1669858 133.391716,75.2870974 133.569312,75.521601 C133.741179,75.693189 133.981793,75.8762162 134.096371,75.8762162 C134.680719,75.8762162 134.801025,76.636923 134.858314,81.172566 C134.915603,83.8207409 134.978621,85.708209 135.104657,85.7596854 C135.161946,85.7596854 135.270795,86.4689158 135.270795,87.2982578 C135.270795,88.1161606 135.339542,88.9969791 135.45412,89.3573139 C135.511409,89.6490135 135.511409,89.8777975 135.45412,89.8206015 C135.333813,89.7634055 135.333813,90.0551051 135.333813,90.4154399 C135.391102,91.1189507 135.50568,91.4106504 135.803583,92.2342728 L135.97545,92.7089996 L136.800412,91.873938 C137.860258,90.8787275 139.504453,88.3449447 140.088801,87.0465954 C140.730437,85.4050702 141.02834,83.5862373 141.148647,80.5205316 C141.268954,78.0496643 141.200207,77.6378531 140.908033,77.0601735 C140.615859,76.4138586 140.615859,76.3452234 140.965322,75.464405 C141.257496,74.5263906 141.962151,73.8857954 142.615246,73.8857954 C142.787113,73.8857954 143.606345,74.2404106 144.488596,74.6465022 C145.319287,75.0011174 146.064044,75.3614522 146.18435,75.3614522 C146.304657,75.3614522 146.419235,75.5330402 146.476524,75.7160674 C146.596831,75.950571 146.711409,76.0706826 147.066601,76.0134866 C147.370233,75.950571 147.547829,76.0134866 147.662407,76.2479902 C147.782714,76.4882134 147.954581,76.6026054 148.137906,76.6026054 C148.779542,76.6026054 148.727982,79.3194155 148.017599,83.4832845 C147.782714,85.0161373 147.662407,85.3078369 147.49054,85.1934449 C147.370233,85.1305293 147.312944,85.1934449 147.312944,85.4279486 C147.312944,85.8397598 146.785885,87.0694738 146.785885,86.7262978 C146.785885,86.4917942 146.722867,86.5489902 146.551,86.7892134 C146.430693,87.023717 146.253097,87.2639402 146.08123,87.4355282 C145.834888,87.6700318 145.834888,87.6071162 145.960923,87.3154166 C146.018212,87.0694738 146.018212,86.9036054 145.897905,86.9036054 C145.829159,86.9036054 145.542714,87.4927242 145.313558,88.2019546 C144.843788,89.3172767 143.434478,91.8567792 143.021998,92.0912828 C142.964708,92.1484788 142.666806,92.4973744 142.494939,92.9149052 C142.025169,93.675612 141.853302,93.7385276 142.082458,93.1551284 C142.202765,92.8062328 142.202765,92.7433172 141.96788,92.7433172 C141.790284,92.8119524 141.664248,92.9149052 141.664248,93.0350168 C141.721537,93.1551284 141.606959,93.3381556 141.429363,93.446828 C141.314785,93.5669396 141.137189,93.8014432 141.137189,93.9730312 C141.068442,94.0931429 140.959593,94.3848425 140.833558,94.5678697 C140.71898,94.6879813 140.667419,94.8652889 140.776269,94.8652889 C140.833558,94.8652889 140.661691,94.9854005 140.375246,95.2199041 C139.544555,95.7575465 138.203992,96.0492461 136.324913,96.1693577 C135.373916,96.2151145 134.331256,96.3409457 133.981793,96.3409457 C133.638059,96.3523849 133.042253,96.2894693 132.629772,96.1579185 L132.629772,96.1579185 Z M140.908033,94.2304133 C140.965322,94.1674977 140.908033,94.1103017 140.736166,94.1674977 C140.438263,94.2876093 140.380974,94.4077209 140.615859,94.4077209 C140.730437,94.4077209 140.839286,94.3448053 140.908033,94.2304133 L140.908033,94.2304133 Z M93.5586718,97.1130918 C93.5013828,96.9929802 93.5586718,96.9929802 93.7305388,97.0501762 C94.0284416,97.1702878 94.0857306,97.2903994 93.7878278,97.2903994 C93.7248099,97.2903994 93.6159608,97.2332034 93.5586718,97.1130918 L93.5586718,97.1130918 Z M103.177495,75.693189 C103.177495,75.521601 103.234784,75.4586854 103.303531,75.635993 C103.36082,75.7561046 103.303531,75.8704966 103.234784,75.9906082 C103.177495,76.0592434 103.177495,75.9276926 103.177495,75.693189 L103.177495,75.693189 Z" id="Shape" fill="#000000"></path>
                    <path d="M185.862714,5.7196002 L18.166343,5.7196002 C10.3463941,5.7196002 5.72890036,10.358196 5.72890036,16.2551038 L5.72890036,121.009581 C5.72890036,126.906489 10.3463941,131.550805 18.166343,131.550805 L185.862714,131.550805 C191.729108,131.550805 196.346602,126.906489 196.346602,121.015301 L196.346602,16.2551038 C196.340873,10.358196 191.729108,5.7196002 185.862714,5.7196002 L185.862714,5.7196002 Z M184.883072,114.392004 L17.1867011,114.392004 L17.1867011,45.9855856 L184.883072,45.9855856 L184.883072,114.392004 L184.883072,114.392004 Z" id="Shape" fill="#E0393D"></path>
                </g>
            </g>
        </g>
    </g>
</svg>