<?xml version="1.0" encoding="UTF-8" standalone="no"?>
<svg width="701px" height="803px" viewBox="0 0 701 803" version="1.1" xmlns="http://www.w3.org/2000/svg" xmlns:xlink="http://www.w3.org/1999/xlink">
    <!-- Generator: Sketch 3.7.2 (28276) - http://www.bohemiancoding.com/sketch -->
    <title>Group</title>
    <desc>Created with Sketch.</desc>
    <defs>
        <linearGradient x1="50%" y1="0%" x2="50%" y2="100%" id="linearGradient-1">
            <stop stop-color="#EAE9E9" offset="0%"></stop>
            <stop stop-color="#DA8DFA" offset="63.6535315%"></stop>
            <stop stop-color="#B85CEB" offset="89.5804077%"></stop>
            <stop stop-color="#BD61ED" offset="100%"></stop>
        </linearGradient>
        <linearGradient x1="50%" y1="0%" x2="50%" y2="96.5879112%" id="linearGradient-2">
            <stop stop-color="#D9D9D9" offset="0%"></stop>
            <stop stop-color="#D9A0F6" offset="56.1394094%"></stop>
            <stop stop-color="#BA5AEF" offset="85.4374175%"></stop>
            <stop stop-color="#AC4CE3" offset="100%"></stop>
        </linearGradient>
        <linearGradient x1="50%" y1="0%" x2="50%" y2="100%" id="linearGradient-3">
            <stop stop-color="#FFFFFF" offset="0%"></stop>
            <stop stop-color="#E9E9E9" offset="100%"></stop>
        </linearGradient>
        <path d="M361.787296,769 C384.518763,769 404.725557,747.32584 406.910785,720.591108 L425.719372,481.408892 C427.709389,454.673399 401.613832,433 367.472906,433 L332.823971,433 C298.676705,433 272.601442,454.67416 274.608517,481.408892 L293.568315,720.591108 C295.77024,747.326601 315.994628,769 338.721875,769 L361.787296,769 Z" id="path-4"></path>
        <filter x="-50%" y="-50%" width="200%" height="200%" filterUnits="objectBoundingBox" id="filter-5">
            <feMorphology radius="1" operator="dilate" in="SourceAlpha" result="shadowSpreadOuter1"></feMorphology>
            <feOffset dx="0" dy="0" in="shadowSpreadOuter1" result="shadowOffsetOuter1"></feOffset>
            <feGaussianBlur stdDeviation="16" in="shadowOffsetOuter1" result="shadowBlurOuter1"></feGaussianBlur>
            <feColorMatrix values="0 0 0 0 0.674509804   0 0 0 0 0.298039216   0 0 0 0 0.894117647  0 0 0 0.3 0" type="matrix" in="shadowBlurOuter1"></feColorMatrix>
        </filter>
        <filter x="-50%" y="-50%" width="200%" height="200%" filterUnits="objectBoundingBox" id="filter-6">
            <feMorphology radius="8" operator="erode" in="SourceAlpha" result="shadowSpreadInner1"></feMorphology>
            <feGaussianBlur stdDeviation="4" in="shadowSpreadInner1" result="shadowBlurInner1"></feGaussianBlur>
            <feOffset dx="0" dy="1" in="shadowBlurInner1" result="shadowOffsetInner1"></feOffset>
            <feComposite in="shadowOffsetInner1" in2="SourceAlpha" operator="arithmetic" k2="-1" k3="1" result="shadowInnerInner1"></feComposite>
            <feColorMatrix values="0 0 0 0 1   0 0 0 0 1   0 0 0 0 1  0 0 0 0.5 0" type="matrix" in="shadowInnerInner1"></feColorMatrix>
        </filter>
        <linearGradient x1="50%" y1="0%" x2="50%" y2="100%" id="linearGradient-7">
            <stop stop-color="#FFFFFF" offset="0%"></stop>
            <stop stop-color="#EBEAEA" offset="100%"></stop>
        </linearGradient>
        <circle id="path-8" cx="350.5" cy="310.5" r="83.5"></circle>
        <filter x="-50%" y="-50%" width="200%" height="200%" filterUnits="objectBoundingBox" id="filter-9">
            <feMorphology radius="8" operator="erode" in="SourceAlpha" result="shadowSpreadInner1"></feMorphology>
            <feGaussianBlur stdDeviation="2" in="shadowSpreadInner1" result="shadowBlurInner1"></feGaussianBlur>
            <feOffset dx="0" dy="1" in="shadowBlurInner1" result="shadowOffsetInner1"></feOffset>
            <feComposite in="shadowOffsetInner1" in2="SourceAlpha" operator="arithmetic" k2="-1" k3="1" result="shadowInnerInner1"></feComposite>
            <feColorMatrix values="0 0 0 0 1   0 0 0 0 1   0 0 0 0 1  0 0 0 0.5 0" type="matrix" in="shadowInnerInner1"></feColorMatrix>
        </filter>
    </defs>
    <g id="Page-1" stroke="none" stroke-width="1" fill="none" fill-rule="evenodd">
        <g id="Artboard-1" transform="translate(-418.000000, -383.000000)">
            <g id="Group" transform="translate(418.000000, 383.000000)">
                <path d="M350.5,701 C544.075805,701 701,544.075805 701,350.5 C701,156.924195 544.075805,0 350.5,0 C156.924195,0 0,156.924195 0,350.5 C0,544.075805 156.924195,701 350.5,701 Z M350.5,649 C515.356998,649 649,515.356998 649,350.5 C649,185.643002 515.356998,52 350.5,52 C185.643002,52 52,185.643002 52,350.5 C52,515.356998 185.643002,649 350.5,649 Z" id="Oval-7" fill="url(#linearGradient-1)" opacity="0.6"></path>
                <path d="M350,535 C465.427513,535 559,441.427513 559,326 C559,210.572487 465.427513,117 350,117 C234.572487,117 141,210.572487 141,326 C141,441.427513 234.572487,535 350,535 Z M349.5,484 C437.037133,484 508,413.037133 508,325.5 C508,237.962867 437.037133,167 349.5,167 C261.962867,167 191,237.962867 191,325.5 C191,413.037133 261.962867,484 349.5,484 Z" id="Oval-5" fill="url(#linearGradient-2)" opacity="0.6"></path>
                <g id="Rectangle-2">
                    <use fill="black" fill-opacity="1" filter="url(#filter-5)" xlink:href="#path-4"></use>
                    <use fill="url(#linearGradient-3)" fill-rule="evenodd" xlink:href="#path-4"></use>
                    <use fill="black" fill-opacity="1" filter="url(#filter-6)" xlink:href="#path-4"></use>
                </g>
                <g id="Oval-3">
                    <use fill="url(#linearGradient-7)" fill-rule="evenodd" xlink:href="#path-8"></use>
                    <use fill="black" fill-opacity="1" filter="url(#filter-9)" xlink:href="#path-8"></use>
                </g>
            </g>
        </g>
    </g>
</svg>