<?xml version="1.0" encoding="UTF-8" standalone="no"?>
<svg width="84px" height="52px" viewBox="0 0 84 52" version="1.1" xmlns="http://www.w3.org/2000/svg" xmlns:xlink="http://www.w3.org/1999/xlink">
    <!-- Generator: Sketch 3.7.2 (28276) - http://www.bohemiancoding.com/sketch -->
    <title>Soundcloud</title>
    <desc>Created with Sketch.</desc>
    <defs></defs>
    <g id="Page-1" stroke="none" stroke-width="1" fill="none" fill-rule="evenodd">
        <g id="Desktop-HD" transform="translate(-1021.000000, -1249.000000)" fill="#444444">
            <g id="Seciton:-Podcast" transform="translate(0.000000, 877.000000)">
                <g id="badge_itunes-lrg-+-Soundcloud-+-ABONNER-PÅ-PODCASTEN" transform="translate(1021.000000, 272.000000)">
                    <g id="Soundcloud" transform="translate(0.000000, 99.000000)">
                        <g id="social-1_logo-soundcloud" transform="translate(1.680000, 0.000000)">
                            <g id="Layer_1">
                                <path d="M1.5435,21.4375 C1.5435,21.1822917 1.28625,21.1822917 1.28625,21.1822917 C1.029,21.1822917 1.029,21.4375 1.029,21.4375 L0.25725,29.09375 L1.029,36.4947917 C1.029,36.75 1.28625,36.75 1.28625,36.75 C1.5435,36.75 1.5435,36.4947917 1.5435,36.4947917 L2.5725,29.09375 L1.5435,21.4375 L1.5435,21.4375 Z" id="Shape"></path>
                                <path d="M14.66325,14.546875 C14.406,14.546875 14.14875,14.8020833 13.8915,15.0572917 L13.11975,29.09375 L13.8915,38.0260417 C13.8915,38.28125 14.14875,38.5364583 14.66325,38.5364583 C14.9205,38.5364583 15.17775,38.28125 15.435,38.0260417 L15.435,38.0260417 L16.20675,29.09375 L15.435,15.0572917 C15.435,14.8020833 15.17775,14.546875 14.66325,14.546875 L14.66325,14.546875 Z" id="Shape"></path>
                                <path d="M7.97475,19.3958333 C7.7175,19.3958333 7.46025,19.6510417 7.46025,19.90625 L6.6885,29.09375 L7.46025,38.0260417 C7.46025,38.28125 7.7175,38.5364583 7.97475,38.5364583 C8.232,38.5364583 8.48925,38.28125 8.48925,38.0260417 L9.261,29.09375 L8.48925,19.90625 C8.48925,19.3958333 8.232,19.3958333 7.97475,19.3958333 L7.97475,19.3958333 Z" id="Shape"></path>
                                <path d="M21.609,38.7916667 C22.1235,38.7916667 22.38075,38.5364583 22.38075,38.0260417 L23.1525,29.09375 L22.38075,10.4635417 C22.38075,9.953125 22.1235,9.69791667 21.609,9.69791667 C21.0945,9.69791667 20.83725,9.953125 20.83725,10.4635417 L20.32275,29.09375 L20.83725,38.0260417 C20.83725,38.28125 21.35175,38.7916667 21.609,38.7916667 L21.609,38.7916667 Z" id="Shape"></path>
                                <path d="M36.015,38.7916667 C36.5295,38.7916667 37.044,38.28125 37.044,37.7708333 L37.044,37.7708333 L37.044,37.7708333 L37.5585,29.09375 L37.044,7.65625 C37.044,7.14583333 36.5295,6.63541667 36.015,6.63541667 C35.5005,6.63541667 34.986,7.14583333 34.986,7.65625 L34.4715,29.09375 L34.986,37.7708333 C34.72875,38.28125 35.24325,38.7916667 36.015,38.7916667 L36.015,38.7916667 Z" id="Shape"></path>
                                <path d="M28.812,38.7916667 C29.3265,38.7916667 29.841,38.28125 29.841,37.7708333 L29.841,37.7708333 L30.3555,29.09375 L29.58375,10.2083333 C29.58375,9.69791667 29.06925,9.1875 28.55475,9.1875 C28.04025,9.1875 27.52575,9.69791667 27.52575,10.2083333 L27.01125,28.8385417 L27.52575,37.515625 C27.783,38.28125 28.2975,38.7916667 28.812,38.7916667 L28.812,38.7916667 Z" id="Shape"></path>
                                <path d="M71.77275,17.8645833 C70.22925,17.8645833 68.943,18.1197917 67.65675,18.6302083 C66.885,9.1875 58.91025,1.78645833 49.13475,1.78645833 C46.8195,1.78645833 44.50425,2.296875 42.44625,3.0625 C41.6745,3.31770833 41.41725,3.57291667 41.41725,4.33854167 L41.41725,37.2604167 C41.41725,37.7708333 41.93175,38.5364583 42.44625,38.5364583 L71.5155,38.5364583 C77.43225,38.5364583 82.06275,33.9427083 82.06275,28.0729167 C82.06275,22.203125 77.6895,17.8645833 71.77275,17.8645833 L71.77275,17.8645833 Z" id="Shape"></path>
                            </g>
                        </g>
                        <text id="SOUNDCLOUD" font-family="HelveticaNeue-Thin, Helvetica Neue" font-size="12.4915825" font-weight="300">
                            <tspan x="0" y="51.1666667">SOUNDCLOUD</tspan>
                        </text>
                    </g>
                </g>
            </g>
        </g>
    </g>
</svg>